{
  "accessors": [
    {
      "bufferView": 2,
      "componentType": 5126,
      "count": 8119,
      "max": [
        1.7498492002487183,
        0.18151496350765228,
        1.747937560081482
      ],
      "min": [
        -1.7465201616287231,
        -1.290295124053955,
        -1.747937560081482
      ],
      "type": "VEC3"
    },
    {
      "bufferView": 2,
      "byteOffset": 97428,
      "componentType": 5126,
      "count": 8119,
      "max": [
        1.0,
        1.0,
        1.0
      ],
      "min": [
        -1.0,
        -1.0,
        -1.0
      ],
      "type": "VEC3"
    },
    {
      "bufferView": 3,
      "componentType": 5126,
      "count": 8119,
      "max": [
        1.0,
        1.0,
        0.9999986886978149,
        1.0
      ],
      "min": [
        -1.0,
        -1.0,
        -0.9999986886978149,
        1.0
      ],
      "type": "VEC4"
    },
    {
      "bufferView": 1,
      "componentType": 5126,
      "count": 8119,
      "max": [
        0.9996263980865479,
        0.9836173057556152
      ],
      "min": [
        0.00037376736872829497,
        0.00037376736872829497
      ],
      "type": "VEC2"
    },
    {
      "bufferView": 0,
      "componentType": 5125,
      "count": 33600,
      "type": "SCALAR"
    }
  ],
  "asset": {
    "extras": {
      "author": "Kenkento3D (https://sketchfab.com/kenkento.zapater)",
      "license": "CC-BY-4.0 (http://creativecommons.org/licenses/by/4.0/)",
      "source": "https://sketchfab.com/3d-models/mp44-steering-wheel-1988-bec20f3649c74cfcaa5a6fdddd7dea80",
      "title": "MP4/4 Steering wheel (1988)"
    },
    "generator": "Sketchfab-12.97.0",
    "version": "2.0"
  },
  "bufferViews": [
    {
      "buffer": 0,
      "byteLength": 134400,
      "name": "floatBufferViews",
      "target": 34963
    },
    {
      "buffer": 0,
      "byteLength": 64952,
      "byteOffset": 134400,
      "byteStride": 8,
      "name": "floatBufferViews",
      "target": 34962
    },
    {
      "buffer": 0,
      "byteLength": 194856,
      "byteOffset": 199352,
      "byteStride": 12,
      "name": "floatBufferViews",
      "target": 34962
    },
    {
      "buffer": 0,
      "byteLength": 129904,
      "byteOffset": 394208,
      "byteStride": 16,
      "name": "floatBufferViews",
      "target": 34962
    }
  ],
  "buffers": [
    {
      "byteLength": 524112,
      "uri": "scene.bin"
    }
  ],
  "images": [
    {
      "uri": "textures/checker_baseColor.jpeg"
    },
    {
      "uri": "textures/checker_metallicRoughness.png"
    },
    {
      "uri": "textures/checker_normal.png"
    }
  ],
  "materials": [
    {
      "doubleSided": true,
      "name": "checker",
      "normalTexture": {
        "index": 2
      },
      "pbrMetallicRoughness": {
        "baseColorTexture": {
          "index": 0
        },
        "metallicRoughnessTexture": {
          "index": 1
        }
      }
    }
  ],
  "meshes": [
    {
      "name": "Object_0",
      "primitives": [
        {
          "attributes": {
            "NORMAL": 1,
            "POSITION": 0,
            "TANGENT": 2,
            "TEXCOORD_0": 3
          },
          "indices": 4,
          "material": 0,
          "mode": 4
        }
      ]
    }
  ],
  "nodes": [
    {
      "children": [
        1
      ],
      "matrix": [
        1.0,
        0.0,
        0.0,
        0.0,
        0.0,
        -0.2548207640647886,
        -0.9669883251190187,
        0.0,
        0.0,
        0.9669883251190187,
        -0.2548207640647886,
        0.0,
        0.0,
        0.0,
        0.0,
        1.0
      ],
      "name": "Sketchfab_model"
    },
    {
      "children": [
        2
      ],
      "name": "root"
    },
    {
      "children": [
        3
      ],
      "matrix": [
        1.0,
        0.0,
        0.0,
        0.0,
        0.0,
        2.220446049250313e-16,
        1.0,
        0.0,
        0.0,
        -1.0,
        2.220446049250313e-16,
        0.0,
        0.0,
        0.0,
        0.0,
        1.0
      ],
      "name": "GLTF_SceneRootNode"
    },
    {
      "children": [
        4
      ],
      "matrix": [
        3.2962641791021554e-09,
        -0.07448616592670751,
        -0.02155121616025607,
        -0.0,
        -2.6141417415714198e-08,
        0.021551216160253815,
        -0.07448616592670365,
        -0.0,
        -0.07754123955964594,
        -1.043193817596637e-08,
        2.419532450982636e-08,
        -0.0,
        0.0,
        0.5887494683265686,
        0.7280898094177246,
        1.0
      ],
      "name": "volante_0"
    },
    {
      "mesh": 0,
      "name": "Object_4"
    }
  ],
  "samplers": [
    {
      "magFilter": 9729,
      "minFilter": 9987,
      "wrapS": 10497,
      "wrapT": 10497
    }
  ],
  "scene": 0,
  "scenes": [
    {
      "name": "Sketchfab_Scene",
      "nodes": [
        0
      ]
    }
  ],
  "textures": [
    {
      "sampler": 0,
      "source": 0
    },
    {
      "sampler": 0,
      "source": 1
    },
    {
      "sampler": 0,
      "source": 2
    }
  ]
}
